#Comment line ignore any data following # character 
#Hierarchical Translation and Rotation (.htr) file 
[Header]	
#Header keywords are followed by a single value 
FileType HTR		#Single word string
DataType HTRS		#Translation followed by rotation and scale data
FileVersion 1		#integer
NumSegments 84		#integer
NumFrames 2		#integer
DataFrameRate 30		#integer, data frame rate in this file
EulerRotationOrder ZYX
CalibrationUnits mm
RotationUnits Degrees
GlobalAxisofGravity Y
BoneLengthAxis Y
ScaleFactor 1.00
[SegmentNames&Hierarchy]
#CHILD	PARENT
MASTER GLOBAL
root MASTER
chest root
L_mid_tent01 root
R_mid_tent01 root
spine01 root
Bip01_Neck chest
L_humerus chest
R_humerus chest
weapon_bone chest
Bip01_Head Bip01_Neck
eye_left_bone Bip01_Head
eye_right_bone Bip01_Head
L_forearm L_humerus
L_front_hand L_forearm
L_weapon_bone L_forearm
L_front_hand01_01 L_front_hand
L_front_hand02_01 L_front_hand
L_front_hand03_01 L_front_hand
L_front_hand01_02 L_front_hand01_01
L_front_hand02_02 L_front_hand02_01
L_front_hand03_02 L_front_hand03_01
R_forearm R_humerus
R_front_hand R_forearm
R_weapon_bone R_forearm
R_front_hand01_01 R_front_hand
R_front_hand02_01 R_front_hand
R_front_hand03_01 R_front_hand
R_front_hand01_02 R_front_hand01_01
R_front_hand02_02 R_front_hand02_01
R_front_hand03_02 R_front_hand03_01
null_rope01_connect L_mid_tent01
Rope1_Seg01 null_rope01_connect
Rope1_Seg02 Rope1_Seg01
Rope1_Seg03 Rope1_Seg02
Rope1_Seg04 Rope1_Seg03
Rope1_Seg05 Rope1_Seg04
Rope1_Seg06 Rope1_Seg05
Rope1_Seg07 Rope1_Seg06
Rope1_Seg09 Rope1_Seg07
L_mid_hand01 Rope1_Seg09
L_mid_hand02 Rope1_Seg09
L_mid_hand03 Rope1_Seg09
null_rope02_connect R_mid_tent01
Rope2_Seg01 null_rope02_connect
Rope2_Seg02 Rope2_Seg01
Rope2_Seg03 Rope2_Seg02
Rope2_Seg04 Rope2_Seg03
Rope2_Seg05 Rope2_Seg04
Rope2_Seg06 Rope2_Seg05
Rope2_Seg07 Rope2_Seg06
Rope2_Seg09 Rope2_Seg07
R_mid_hand01 Rope2_Seg09
R_mid_hand02 Rope2_Seg09
R_mid_hand03 Rope2_Seg09
spine02 spine01
spine03 spine02
pelvis spine03
null_rope03_connect pelvis
null_rope04_connect pelvis
Rope3_Seg01 null_rope03_connect
Rope3_Seg02 Rope3_Seg01
Rope3_Seg03 Rope3_Seg02
Rope3_Seg04 Rope3_Seg03
Rope3_Seg05 Rope3_Seg04
Rope3_Seg06 Rope3_Seg05
Rope3_Seg07 Rope3_Seg06
Rope3_Seg08 Rope3_Seg07
Rope3_Seg09 Rope3_Seg08
R_rear_hand01 Rope3_Seg09
R_rear_hand02 Rope3_Seg09
R_rear_hand03 Rope3_Seg09
Rope4_Seg01 null_rope04_connect
Rope4_Seg02 Rope4_Seg01
Rope4_Seg03 Rope4_Seg02
Rope4_Seg04 Rope4_Seg03
Rope4_Seg05 Rope4_Seg04
Rope4_Seg06 Rope4_Seg05
Rope4_Seg07 Rope4_Seg06
Rope4_Seg08 Rope4_Seg07
Rope4_Seg09 Rope4_Seg08
L_rear_hand01 Rope4_Seg09
L_rear_hand02 Rope4_Seg09
L_rear_hand03 Rope4_Seg09
[BasePosition]
#SegmentName Tx, Ty, Tz, Rx, Ry, Rz, BoneLength
MASTER 0.000000 0.000000 0.000000 -90.000000 0.000000 0.000000 10.000000 
root 0.000000 0.000000 0.000000 0.000000 0.000000 0.000000 10.000000 
chest 0.000000 0.000000 0.000000 0.000000 0.000000 0.000000 10.000000 
L_mid_tent01 0.000000 0.000000 0.000000 0.000000 0.000000 0.000000 10.000000 
R_mid_tent01 0.000000 0.000000 0.000000 0.000000 0.000000 0.000000 10.000000 
spine01 0.000000 0.000000 0.000000 0.000000 0.000000 0.000000 10.000000 
Bip01_Neck 0.000000 0.000000 0.000000 0.000000 0.000000 0.000000 10.000000 
L_humerus 0.000000 0.000000 0.000000 0.000000 0.000000 0.000000 10.000000 
R_humerus 0.000000 0.000000 0.000000 0.000000 0.000000 0.000000 10.000000 
weapon_bone 0.000000 0.000000 0.000000 0.000000 0.000000 0.000000 10.000000 
Bip01_Head 0.000000 0.000000 0.000000 0.000000 0.000000 0.000000 10.000000 
eye_left_bone 0.000000 0.000000 0.000000 0.000000 0.000000 0.000000 10.000000 
eye_right_bone 0.000000 0.000000 0.000000 0.000000 0.000000 0.000000 10.000000 
L_forearm 0.000000 0.000000 0.000000 0.000000 0.000000 0.000000 10.000000 
L_front_hand 0.000000 0.000000 0.000000 0.000000 0.000000 0.000000 10.000000 
L_weapon_bone 0.000000 0.000000 0.000000 0.000000 0.000000 0.000000 10.000000 
L_front_hand01_01 0.000000 0.000000 0.000000 0.000000 0.000000 0.000000 10.000000 
L_front_hand02_01 0.000000 0.000000 0.000000 0.000000 0.000000 0.000000 10.000000 
L_front_hand03_01 0.000000 0.000000 0.000000 0.000000 0.000000 0.000000 10.000000 
L_front_hand01_02 0.000000 0.000000 0.000000 0.000000 0.000000 0.000000 10.000000 
L_front_hand02_02 0.000000 0.000000 0.000000 0.000000 0.000000 0.000000 10.000000 
L_front_hand03_02 0.000000 0.000000 0.000000 0.000000 0.000000 0.000000 10.000000 
R_forearm 0.000000 0.000000 0.000000 0.000000 0.000000 0.000000 10.000000 
R_front_hand 0.000000 0.000000 0.000000 0.000000 0.000000 0.000000 10.000000 
R_weapon_bone 0.000000 0.000000 0.000000 0.000000 0.000000 0.000000 10.000000 
R_front_hand01_01 0.000000 0.000000 0.000000 0.000000 0.000000 0.000000 10.000000 
R_front_hand02_01 0.000000 0.000000 0.000000 0.000000 0.000000 0.000000 10.000000 
R_front_hand03_01 0.000000 0.000000 0.000000 0.000000 0.000000 0.000000 10.000000 
R_front_hand01_02 0.000000 0.000000 0.000000 0.000000 0.000000 0.000000 10.000000 
R_front_hand02_02 0.000000 0.000000 0.000000 0.000000 0.000000 0.000000 10.000000 
R_front_hand03_02 0.000000 0.000000 0.000000 0.000000 0.000000 0.000000 10.000000 
null_rope01_connect 0.000000 0.000000 0.000000 0.000000 0.000000 0.000000 10.000000 
Rope1_Seg01 0.000000 0.000000 0.000000 0.000000 0.000000 0.000000 10.000000 
Rope1_Seg02 0.000000 0.000000 0.000000 0.000000 0.000000 0.000000 10.000000 
Rope1_Seg03 0.000000 0.000000 0.000000 0.000000 0.000000 0.000000 10.000000 
Rope1_Seg04 0.000000 0.000000 0.000000 0.000000 0.000000 0.000000 10.000000 
Rope1_Seg05 0.000000 0.000000 0.000000 0.000000 0.000000 0.000000 10.000000 
Rope1_Seg06 0.000000 0.000000 0.000000 0.000000 0.000000 0.000000 10.000000 
Rope1_Seg07 0.000000 0.000000 0.000000 0.000000 0.000000 0.000000 10.000000 
Rope1_Seg09 0.000000 0.000000 0.000000 0.000000 0.000000 0.000000 10.000000 
L_mid_hand01 0.000000 0.000000 0.000000 0.000000 0.000000 0.000000 10.000000 
L_mid_hand02 0.000000 0.000000 0.000000 0.000000 0.000000 0.000000 10.000000 
L_mid_hand03 0.000000 0.000000 0.000000 0.000000 0.000000 0.000000 10.000000 
null_rope02_connect 0.000000 0.000000 0.000000 0.000000 0.000000 0.000000 10.000000 
Rope2_Seg01 0.000000 0.000000 0.000000 0.000000 0.000000 0.000000 10.000000 
Rope2_Seg02 0.000000 0.000000 0.000000 0.000000 0.000000 0.000000 10.000000 
Rope2_Seg03 0.000000 0.000000 0.000000 0.000000 0.000000 0.000000 10.000000 
Rope2_Seg04 0.000000 0.000000 0.000000 0.000000 0.000000 0.000000 10.000000 
Rope2_Seg05 0.000000 0.000000 0.000000 0.000000 0.000000 0.000000 10.000000 
Rope2_Seg06 0.000000 0.000000 0.000000 0.000000 0.000000 0.000000 10.000000 
Rope2_Seg07 0.000000 0.000000 0.000000 0.000000 0.000000 0.000000 10.000000 
Rope2_Seg09 0.000000 0.000000 0.000000 0.000000 0.000000 0.000000 10.000000 
R_mid_hand01 0.000000 0.000000 0.000000 0.000000 0.000000 0.000000 10.000000 
R_mid_hand02 0.000000 0.000000 0.000000 0.000000 0.000000 0.000000 10.000000 
R_mid_hand03 0.000000 0.000000 0.000000 0.000000 0.000000 0.000000 10.000000 
spine02 0.000000 0.000000 0.000000 0.000000 0.000000 0.000000 10.000000 
spine03 0.000000 0.000000 0.000000 0.000000 0.000000 0.000000 10.000000 
pelvis 0.000000 0.000000 0.000000 0.000000 0.000000 0.000000 10.000000 
null_rope03_connect 0.000000 0.000000 0.000000 0.000000 0.000000 0.000000 10.000000 
null_rope04_connect 0.000000 0.000000 0.000000 0.000000 0.000000 0.000000 10.000000 
Rope3_Seg01 0.000000 0.000000 0.000000 0.000000 0.000000 0.000000 10.000000 
Rope3_Seg02 0.000000 0.000000 0.000000 0.000000 0.000000 0.000000 10.000000 
Rope3_Seg03 0.000000 0.000000 0.000000 0.000000 0.000000 0.000000 10.000000 
Rope3_Seg04 0.000000 0.000000 0.000000 0.000000 0.000000 0.000000 10.000000 
Rope3_Seg05 0.000000 0.000000 0.000000 0.000000 0.000000 0.000000 10.000000 
Rope3_Seg06 0.000000 0.000000 0.000000 0.000000 0.000000 0.000000 10.000000 
Rope3_Seg07 0.000000 0.000000 0.000000 0.000000 0.000000 0.000000 10.000000 
Rope3_Seg08 0.000000 0.000000 0.000000 0.000000 0.000000 0.000000 10.000000 
Rope3_Seg09 0.000000 0.000000 0.000000 0.000000 0.000000 0.000000 10.000000 
R_rear_hand01 0.000000 0.000000 0.000000 0.000000 0.000000 0.000000 10.000000 
R_rear_hand02 0.000000 0.000000 0.000000 0.000000 0.000000 0.000000 10.000000 
R_rear_hand03 0.000000 0.000000 0.000000 0.000000 0.000000 0.000000 10.000000 
Rope4_Seg01 0.000000 0.000000 0.000000 0.000000 0.000000 0.000000 10.000000 
Rope4_Seg02 0.000000 0.000000 0.000000 0.000000 0.000000 0.000000 10.000000 
Rope4_Seg03 0.000000 0.000000 0.000000 0.000000 0.000000 0.000000 10.000000 
Rope4_Seg04 0.000000 0.000000 0.000000 0.000000 0.000000 0.000000 10.000000 
Rope4_Seg05 0.000000 0.000000 0.000000 0.000000 0.000000 0.000000 10.000000 
Rope4_Seg06 0.000000 0.000000 0.000000 0.000000 0.000000 0.000000 10.000000 
Rope4_Seg07 0.000000 0.000000 0.000000 0.000000 0.000000 0.000000 10.000000 
Rope4_Seg08 0.000000 0.000000 0.000000 0.000000 0.000000 0.000000 10.000000 
Rope4_Seg09 0.000000 0.000000 0.000000 0.000000 0.000000 0.000000 10.000000 
L_rear_hand01 0.000000 0.000000 0.000000 0.000000 0.000000 0.000000 10.000000 
L_rear_hand02 0.000000 0.000000 0.000000 0.000000 0.000000 0.000000 10.000000 
L_rear_hand03 0.000000 0.000000 0.000000 0.000000 0.000000 0.000000 10.000000 
#Beginning of Data. Separated by tabs
#Fr	Tx	Ty	Tz	Rx	Ry	Rz	SF
[MASTER]
18 1537.401123 -3311.739746 0.000000 0.000344 -0.002322 -106.836128 3651.194824
19 1578.488159 -3524.258545 0.000000 0.000371 -0.002318 -108.197456 3861.608887
[root]
18 -62.822266 49.527824 1029.289917 -82.128410 -8.340802 -179.864899 1032.394043
19 -62.822052 60.505489 1038.641235 -85.081367 -8.813288 -179.863205 1042.296997
[chest]
18 -84.512650 -34.090519 0.000000 -7.717439 3.921940 155.670731 91.129311
19 -84.512650 -34.090519 0.000000 -7.115242 3.547496 155.750992 91.129311
[L_mid_tent01]
18 23.228750 24.509907 -223.761200 -6.793772 7.387676 -2.388650 226.294907
19 23.228750 24.509907 -223.761200 -5.199630 10.160717 -0.624922 226.294907
[R_mid_tent01]
18 23.228794 24.509907 226.238495 -162.470657 -15.785173 -18.485302 228.744751
19 23.228794 24.509907 226.238495 -162.875031 -17.157936 -14.825757 228.744751
[spine01]
18 -0.361383 -0.195265 0.000000 0.001815 0.001488 11.320962 0.410763
19 -0.361383 -0.195265 0.000000 0.001815 0.001488 11.320962 0.410763
[Bip01_Neck]
18 165.484543 71.581718 0.000119 175.896118 1.177290 24.871183 180.302734
19 165.484543 71.581718 0.000119 175.896118 1.177290 24.871183 180.302734
[L_humerus]
18 -13.983130 -135.272980 -120.471481 160.002640 36.837692 -108.863380 181.680161
19 -13.983130 -135.272980 -120.471481 158.388412 41.592140 -109.488846 181.680161
[R_humerus]
18 -13.983309 -135.273102 125.287651 -164.654800 -28.163481 -102.609955 184.909012
19 -13.983309 -135.273102 125.287651 -164.155106 -33.193451 -102.503723 184.909012
[weapon_bone]
18 235.964890 -300.705902 0.000000 0.000000 -89.951546 -128.212341 382.234833
19 235.964890 -300.705902 0.000000 0.000000 -89.951546 -128.212341 382.234833
[Bip01_Head]
18 201.313766 211.516785 15.929725 -15.325427 4.461315 -68.783852 292.438629
19 201.313751 211.516785 15.929725 -14.414426 4.257436 -68.005493 292.438599
[eye_left_bone]
18 -24.626970 125.451866 -64.772606 0.000000 -90.000000 -99.840431 143.318359
19 -24.626970 125.451866 -64.772606 0.000000 -90.000000 -99.840431 143.318359
[eye_right_bone]
18 -24.626970 125.451866 64.327362 0.000000 -89.965736 80.156380 143.117676
19 -24.626970 125.451866 64.327362 0.000000 -89.965736 80.156380 143.117676
[L_forearm]
18 322.776093 0.000000 -0.000119 0.000357 -0.002320 -107.506004 322.776093
19 322.776093 0.000000 -0.000119 0.000357 -0.002320 -107.506004 322.776093
[L_front_hand]
18 241.149185 -0.042021 -3.300071 -179.431961 -2.195943 -5.942919 241.171753
19 241.149185 -0.042021 -3.300071 -179.431961 -2.195943 -5.942918 241.171753
[L_weapon_bone]
18 156.183838 0.000000 0.000000 0.000014 0.000007 0.000001 156.183838
19 156.183838 0.000000 0.000000 0.000014 0.000007 0.000001 156.183838
[L_front_hand01_01]
18 86.095154 20.947098 -0.655860 0.139491 -0.584553 24.181786 88.609184
19 86.095154 20.947098 -0.655860 0.139491 -0.584553 24.181786 88.609184
[L_front_hand02_01]
18 86.935165 -11.437475 24.513514 119.190460 -21.905655 -12.119137 91.046425
19 86.935165 -11.437475 24.513514 119.190460 -21.905655 -12.119137 91.046425
[L_front_hand03_01]
18 86.637497 -14.123976 -20.424902 -120.437630 20.554031 -14.327168 90.126129
19 86.637497 -14.123976 -20.424902 -120.437630 20.554029 -14.327168 90.126129
[L_front_hand01_02]
18 71.020905 -0.000179 0.000030 0.000334 -0.002323 -106.379684 71.020905
19 71.020905 -0.000179 0.000030 0.000334 -0.002323 -106.379684 71.020905
[L_front_hand02_02]
18 71.020927 -0.000119 0.000060 0.000334 -0.002323 -106.379684 71.020927
19 71.020927 -0.000119 0.000060 0.000334 -0.002323 -106.379684 71.020927
[L_front_hand03_02]
18 71.020905 -0.000060 0.000060 0.000334 -0.002323 -106.379684 71.020905
19 71.020905 -0.000060 0.000060 0.000334 -0.002323 -106.379684 71.020905
[R_forearm]
18 322.776428 -0.000060 0.000030 0.196737 0.083011 -114.368637 322.776428
19 322.776428 -0.000060 0.000030 0.196737 0.083011 -114.368637 322.776428
[R_front_hand]
18 238.847015 -0.006795 2.210259 -0.341870 1.692705 -0.151779 238.857239
19 238.847015 -0.006795 2.210259 -0.341870 1.692705 -0.151779 238.857239
[R_weapon_bone]
18 155.664093 0.002503 -0.000030 0.003487 0.001180 -90.988930 155.664078
19 155.664093 0.002503 -0.000030 0.003487 0.001180 -90.988930 155.664078
[R_front_hand01_01]
18 87.624611 14.231146 22.918642 -119.218056 -22.033409 12.303375 91.683487
19 87.624611 14.231146 22.918642 -119.218056 -22.033409 12.303375 91.683487
[R_front_hand02_01]
18 89.356956 14.367283 -19.491137 120.545532 20.947184 14.823009 92.579636
19 89.356956 14.367283 -19.491137 120.545532 20.947184 14.823009 92.579636
[R_front_hand03_01]
18 87.286232 -22.307278 -0.143439 -0.231628 -0.392922 -24.567768 90.091743
19 87.286232 -22.307278 -0.143439 -0.231628 -0.392922 -24.567768 90.091743
[R_front_hand01_02]
18 71.020905 0.000060 0.000119 0.002323 -0.000334 106.381714 71.020905
19 71.020905 0.000060 0.000119 0.002323 -0.000334 106.381714 71.020905
[R_front_hand02_02]
18 71.020844 -0.000030 -0.000119 0.002323 -0.000334 106.381714 71.020836
19 71.020844 -0.000030 -0.000119 0.002323 -0.000334 106.381714 71.020836
[R_front_hand03_02]
18 71.020905 0.000000 0.000030 0.002323 -0.000334 106.381714 71.020905
19 71.020905 0.000000 0.000030 0.002323 -0.000334 106.381714 71.020905
[null_rope01_connect]
18 328.732483 0.000000 -0.000238 84.098976 65.843460 4.221096 328.732483
19 328.732483 0.000000 -0.000238 87.234444 61.815765 5.984103 328.732483
[Rope1_Seg01]
18 0.000095 0.000000 -0.000033 49.151455 -36.596241 59.071186 0.000100
19 0.000099 0.000000 -0.000031 50.051025 -37.146130 58.198471 0.000104
[Rope1_Seg02]
18 139.999863 -0.000179 0.000000 1.416103 0.683788 -4.328698 139.999863
19 139.999863 -0.000179 0.000000 0.331015 1.562877 -2.694676 139.999863
[Rope1_Seg03]
18 139.999924 0.000060 -0.000060 2.431504 0.793318 -6.019528 139.999924
19 139.999924 0.000060 -0.000060 0.591707 2.329126 -4.088054 139.999924
[Rope1_Seg04]
18 139.999924 -0.000060 -0.000119 11.402196 -1.967035 -14.944579 139.999924
19 139.999924 -0.000060 -0.000119 3.089770 4.238918 -10.260277 139.999924
[Rope1_Seg05]
18 139.999832 0.000119 -0.000060 9.610400 0.239572 -11.217859 139.999832
19 139.999832 0.000119 -0.000060 1.990549 7.552367 -11.182758 139.999832
[Rope1_Seg06]
18 139.999954 0.000119 -0.000060 -31.961802 21.978815 14.391171 139.999954
19 139.999954 0.000119 -0.000060 -8.550050 2.682869 5.245135 139.999954
[Rope1_Seg07]
18 139.999985 0.000060 0.000000 -12.143455 5.776233 11.880987 139.999985
19 139.999985 0.000060 0.000000 -2.193317 1.430826 0.493698 139.999985
[Rope1_Seg09]
18 121.602913 0.000119 -0.000089 -89.793175 -1.359789 0.847147 121.602913
19 121.602913 0.000119 -0.000089 -89.793175 -1.359789 0.847147 121.602913
[L_mid_hand01]
18 103.859421 1.038730 8.195221 106.855484 -31.239275 -9.461397 104.187431
19 103.859421 1.038730 8.195221 106.855484 -31.239275 -9.461397 104.187431
[L_mid_hand02]
18 105.572853 -4.139662 -10.864139 -142.331345 25.752670 -28.774628 106.211075
19 105.572853 -4.139662 -10.864139 -142.331345 25.752670 -28.774628 106.211075
[L_mid_hand03]
18 104.641464 17.579376 -3.913581 -16.122810 9.734291 34.223598 106.179977
19 104.641464 17.579376 -3.913581 -16.122810 9.734291 34.223598 106.179977
[null_rope02_connect]
18 328.732849 0.000179 -0.000119 157.087540 -72.676147 84.743530 328.732849
19 328.732849 0.000179 -0.000119 158.343216 -75.465584 87.543259 328.732849
[Rope2_Seg01]
18 -0.000132 -0.000066 -0.000066 -62.116932 -25.919306 -96.890511 0.000162
19 -0.000134 -0.000061 -0.000061 -60.463642 -21.795454 -90.760750 0.000159
[Rope2_Seg02]
18 139.999741 -0.000060 -0.000119 -4.691725 -1.999750 -5.542531 139.999756
19 139.999741 -0.000060 -0.000119 -4.022805 -1.461262 -3.867494 139.999756
[Rope2_Seg03]
18 140.000107 0.000030 0.000000 -19.643774 -9.713347 -34.220459 140.000107
19 140.000107 0.000030 0.000000 -10.557303 -3.375975 -11.398488 140.000107
[Rope2_Seg04]
18 139.999802 0.000000 -0.000060 -6.598843 3.313439 -87.153893 139.999802
19 139.999802 0.000000 -0.000060 -19.986441 -5.794443 -86.345467 139.999802
[Rope2_Seg05]
18 139.999985 -0.000060 0.000119 2.886503 8.777021 -11.018403 139.999985
19 139.999985 -0.000060 0.000119 8.875410 11.648571 -35.097286 139.999985
[Rope2_Seg06]
18 139.999893 -0.000030 -0.000119 0.089024 15.684452 -8.545966 139.999893
19 139.999893 -0.000030 -0.000119 5.852202 1.383588 -9.228708 139.999893
[Rope2_Seg07]
18 139.999893 0.000060 -0.000060 7.299703 8.606778 -8.427766 139.999893
19 139.999893 0.000060 -0.000060 8.839275 0.419429 -11.045007 139.999893
[Rope2_Seg09]
18 121.338966 0.000089 -0.000060 33.793236 -1.359788 -0.847141 121.338966
19 121.338966 0.000089 -0.000060 33.793236 -1.359788 -0.847141 121.338966
[R_mid_hand01]
18 104.680779 11.144459 -10.335981 -41.523792 25.424656 28.595957 105.778534
19 104.680779 11.144459 -10.335981 -41.523792 25.424656 28.595957 105.778534
[R_mid_hand02]
18 104.070427 2.443552 8.231699 72.847389 -32.746803 10.013901 104.424065
19 104.070427 2.443552 8.231699 72.847389 -32.746803 10.013901 104.424065
[R_mid_hand03]
18 106.028137 -11.221827 -5.996406 -167.901306 10.259192 -37.009720 106.788818
19 106.028137 -11.221827 -5.996406 -167.901306 10.259192 -37.009720 106.788818
[spine02]
18 129.756927 0.001550 0.000119 0.001147 -1.797837 -7.854275 129.756927
19 129.756927 0.001550 0.000119 0.001147 -1.797837 -7.854275 129.756927
[spine03]
18 79.115631 0.000000 -0.000119 1.459971 -2.848092 23.765963 79.115631
19 79.115631 0.000000 -0.000119 1.459971 -2.848092 23.765959 79.115631
[pelvis]
18 169.435242 0.051022 0.000000 -0.000005 0.000003 -4.322055 169.435257
19 169.435242 0.051022 0.000000 -0.000005 0.000003 -4.322055 169.435257
[null_rope03_connect]
18 -1.257226 -2.466202 137.391083 48.349846 74.938736 -54.581886 137.418976
19 -1.257226 -2.466202 137.391083 61.639603 75.145172 -41.258114 137.418976
[null_rope04_connect]
18 -1.259640 -2.480268 -137.844437 48.349846 74.938736 -54.581886 137.872513
19 -1.259640 -2.480268 -137.844437 61.639603 75.145172 -41.258114 137.872513
[Rope3_Seg01]
18 0.000095 0.000000 -0.000033 -128.955170 -5.457822 88.054878 0.000100
19 0.000099 0.000000 -0.000031 -130.661377 -4.130754 102.164055 0.000104
[Rope3_Seg02]
18 139.999924 -0.000119 0.000060 0.597059 4.027765 3.274466 139.999924
19 139.999924 -0.000119 0.000060 0.342751 5.092782 4.547879 139.999924
[Rope3_Seg03]
18 139.999924 -0.000119 0.000119 0.929959 4.796875 3.833155 139.999924
19 139.999924 -0.000119 0.000119 0.839087 6.761514 6.024038 139.999924
[Rope3_Seg04]
18 139.999924 0.000119 0.000000 1.954873 7.174461 5.354750 139.999924
19 139.999924 0.000119 0.000000 2.071603 9.685165 8.554310 139.999924
[Rope3_Seg05]
18 139.999924 -0.000238 0.000060 4.676937 10.302070 7.032103 139.999924
19 139.999924 -0.000238 0.000060 6.847970 15.330481 13.215621 139.999924
[Rope3_Seg06]
18 139.999893 -0.000119 -0.000060 0.084390 0.351976 1.169134 139.999893
19 139.999893 -0.000119 -0.000060 4.043988 6.009784 4.109871 139.999893
[Rope3_Seg07]
18 139.999771 0.000060 -0.000119 -3.966639 -10.142694 -3.884915 139.999771
19 139.999771 0.000060 -0.000119 -2.472863 -6.127984 -3.859609 139.999771
[Rope3_Seg08]
18 139.999985 -0.000060 0.000000 -1.350787 -5.508286 -2.255883 139.999985
19 139.999985 -0.000060 0.000000 -0.990346 -4.180480 -2.932020 139.999985
[Rope3_Seg09]
18 90.185997 -0.000179 -0.000060 89.793228 -1.359877 -0.847183 90.185997
19 90.185997 -0.000179 -0.000060 89.793228 -1.359877 -0.847183 90.185997
[R_rear_hand01]
18 103.366196 -6.073594 -10.757982 -161.551193 16.666374 -30.088671 104.101845
19 103.366196 -6.073594 -10.757982 -161.551193 16.666374 -30.088671 104.101845
[R_rear_hand02]
18 100.509819 12.039542 -7.992327 -34.280552 19.289745 28.875523 101.543350
19 100.509819 12.039542 -7.992327 -34.280552 19.289745 28.875523 101.543350
[R_rear_hand03]
18 101.539970 5.215704 5.435467 83.366440 -30.933914 7.284830 101.819031
19 101.539970 5.215704 5.435467 83.366440 -30.933914 7.284830 101.819031
[Rope4_Seg01]
18 0.000014 -0.000313 -0.000153 41.114845 -16.143259 97.732201 0.000348
19 0.000013 -0.000336 -0.000153 32.494118 -9.458321 123.904404 0.000369
[Rope4_Seg02]
18 139.999985 0.000060 0.000119 3.165062 -12.864948 -21.343908 139.999985
19 139.999985 0.000060 0.000119 10.758647 -14.745811 -26.297451 139.999985
[Rope4_Seg03]
18 139.999924 0.000000 -0.000238 -0.708362 -7.777644 -10.912386 139.999924
19 139.999924 0.000000 -0.000238 3.229079 -15.656900 -20.917322 139.999924
[Rope4_Seg04]
18 139.999985 0.000000 0.000119 -1.104380 -4.334782 -5.863871 139.999985
19 139.999985 0.000000 0.000119 -1.082164 -10.648365 -13.425126 139.999985
[Rope4_Seg05]
18 139.999802 -0.000060 -0.000119 -0.577346 0.023891 -1.477288 139.999802
19 139.999802 -0.000060 -0.000119 -1.038385 -2.740989 -3.907380 139.999802
[Rope4_Seg06]
18 139.999924 0.000000 0.000060 -0.130507 2.911059 0.834444 139.999924
19 139.999924 0.000000 0.000060 -0.008463 0.273661 -0.097279 139.999924
[Rope4_Seg07]
18 139.999802 0.000000 0.000000 0.202079 6.332283 2.905851 139.999802
19 139.999802 0.000000 0.000000 1.098952 3.194820 3.491365 139.999802
[Rope4_Seg08]
18 139.999924 0.000000 0.000119 -1.626459 4.099092 1.111522 139.999924
19 139.999924 0.000000 0.000119 -1.033960 2.142222 2.030390 139.999924
[Rope4_Seg09]
18 90.185791 0.000060 0.000060 -135.617828 2.228885 0.850567 90.185791
19 90.185791 0.000060 0.000060 -135.617828 2.228885 0.850567 90.185791
[L_rear_hand01]
18 101.696655 -8.392275 -7.654577 -34.454281 -18.946800 151.655121 102.329041
19 101.696655 -8.392275 -7.654577 -34.454281 -18.946800 151.655121 102.329041
[L_rear_hand02]
18 102.726799 -1.568258 5.773216 83.407906 30.330435 172.796509 102.900848
19 102.726799 -1.568258 5.773216 83.407906 30.330435 172.796509 102.900848
[L_rear_hand03]
18 104.552910 9.721220 -10.420293 -161.379868 -16.473232 -150.512238 105.519653
19 104.552910 9.721220 -10.420293 -161.379868 -16.473232 -150.512238 105.519653
